<svg width="32" height="32" viewBox="0 0 32 32" fill="none" xmlns="http://www.w3.org/2000/svg">
  <defs>
    <linearGradient id="grad" x1="0%" y1="0%" x2="100%" y2="100%">
      <stop offset="0%" style="stop-color:#6366f1"/>
      <stop offset="100%" style="stop-color:#a855f7"/>
    </linearGradient>
  </defs>
  <rect width="32" height="32" rx="8" fill="url(#grad)"/>
  <path d="M22 11C22 11 22 11 22 11C20.8954 11 20 11.8954 20 13V21L14 17V13C14 11.8954 13.1046 11 12 11H22Z" fill="white" fill-opacity="0.9"/>
  <path d="M10 13C10 11.8954 10.8954 11 12 11H12.5C13.0523 11 13.5 11.4477 13.5 12V21L17 17V12C17 11.4477 17.4477 11 18 11H18.5C19.6046 11 20.5 11.8954 20.5 13V22C20.5 23.1046 19.6046 24 18.5 24H12C10.8954 24 10 23.1046 10 22V13Z" fill="white"/>
</svg>
